<mxfile host="app.diagrams.net" modified="2023-04-27T10:10:38.548Z" agent="Mozilla/5.0 (Windows NT 10.0; Win64; x64) AppleWebKit/537.36 (KHTML, like Gecko) Chrome/112.0.0.0 Safari/537.36" etag="wAmOsROVU61g3kF1-p-j" version="21.2.3" type="github">
  <diagram name="Page-1" id="HTRT8-ce6DChUPgs-GvR">
    <mxGraphModel dx="1050" dy="541" grid="1" gridSize="10" guides="1" tooltips="1" connect="1" arrows="1" fold="1" page="1" pageScale="1" pageWidth="850" pageHeight="1100" math="0" shadow="0">
      <root>
        <mxCell id="0" />
        <mxCell id="1" parent="0" />
        <mxCell id="Jppphol-Fye0LTOcOjS4-1" value="Start" style="rounded=1;whiteSpace=wrap;html=1;" vertex="1" parent="1">
          <mxGeometry x="350" y="50" width="90" height="30" as="geometry" />
        </mxCell>
        <mxCell id="Jppphol-Fye0LTOcOjS4-2" value="Display Logo" style="rounded=1;whiteSpace=wrap;html=1;" vertex="1" parent="1">
          <mxGeometry x="350" y="120" width="90" height="40" as="geometry" />
        </mxCell>
        <mxCell id="Jppphol-Fye0LTOcOjS4-3" value="" style="endArrow=classic;html=1;rounded=0;exitX=0.5;exitY=1;exitDx=0;exitDy=0;entryX=0.5;entryY=0;entryDx=0;entryDy=0;" edge="1" parent="1" source="Jppphol-Fye0LTOcOjS4-1" target="Jppphol-Fye0LTOcOjS4-2">
          <mxGeometry width="50" height="50" relative="1" as="geometry">
            <mxPoint x="400" y="310" as="sourcePoint" />
            <mxPoint x="450" y="260" as="targetPoint" />
          </mxGeometry>
        </mxCell>
        <mxCell id="Jppphol-Fye0LTOcOjS4-4" value="Ask for name Input" style="rounded=1;whiteSpace=wrap;html=1;" vertex="1" parent="1">
          <mxGeometry x="335" y="190" width="120" height="40" as="geometry" />
        </mxCell>
        <mxCell id="Jppphol-Fye0LTOcOjS4-5" value="Ask for bid Price" style="rounded=1;whiteSpace=wrap;html=1;" vertex="1" parent="1">
          <mxGeometry x="335" y="260" width="120" height="40" as="geometry" />
        </mxCell>
        <mxCell id="Jppphol-Fye0LTOcOjS4-8" value="" style="endArrow=classic;html=1;rounded=0;exitX=0.5;exitY=1;exitDx=0;exitDy=0;entryX=0.5;entryY=0;entryDx=0;entryDy=0;" edge="1" parent="1" source="Jppphol-Fye0LTOcOjS4-2" target="Jppphol-Fye0LTOcOjS4-4">
          <mxGeometry width="50" height="50" relative="1" as="geometry">
            <mxPoint x="400" y="310" as="sourcePoint" />
            <mxPoint x="450" y="260" as="targetPoint" />
          </mxGeometry>
        </mxCell>
        <mxCell id="Jppphol-Fye0LTOcOjS4-9" value="" style="endArrow=classic;html=1;rounded=0;exitX=0.5;exitY=1;exitDx=0;exitDy=0;entryX=0.5;entryY=0;entryDx=0;entryDy=0;" edge="1" parent="1" source="Jppphol-Fye0LTOcOjS4-4" target="Jppphol-Fye0LTOcOjS4-5">
          <mxGeometry width="50" height="50" relative="1" as="geometry">
            <mxPoint x="400" y="310" as="sourcePoint" />
            <mxPoint x="450" y="260" as="targetPoint" />
          </mxGeometry>
        </mxCell>
        <mxCell id="Jppphol-Fye0LTOcOjS4-10" value="Add Name and Bid Price into Dictionary as Key Value" style="rounded=1;whiteSpace=wrap;html=1;" vertex="1" parent="1">
          <mxGeometry x="300" y="340" width="190" height="40" as="geometry" />
        </mxCell>
        <mxCell id="Jppphol-Fye0LTOcOjS4-11" value="" style="endArrow=classic;html=1;rounded=0;exitX=0.5;exitY=1;exitDx=0;exitDy=0;" edge="1" parent="1" source="Jppphol-Fye0LTOcOjS4-5" target="Jppphol-Fye0LTOcOjS4-10">
          <mxGeometry width="50" height="50" relative="1" as="geometry">
            <mxPoint x="400" y="300" as="sourcePoint" />
            <mxPoint x="450" y="250" as="targetPoint" />
          </mxGeometry>
        </mxCell>
        <mxCell id="Jppphol-Fye0LTOcOjS4-12" value="Ask if any other person wants to Bid" style="rhombus;whiteSpace=wrap;html=1;" vertex="1" parent="1">
          <mxGeometry x="316.25" y="410" width="157.5" height="120" as="geometry" />
        </mxCell>
        <mxCell id="Jppphol-Fye0LTOcOjS4-13" value="" style="endArrow=classic;html=1;rounded=0;exitX=0.5;exitY=1;exitDx=0;exitDy=0;" edge="1" parent="1" source="Jppphol-Fye0LTOcOjS4-10" target="Jppphol-Fye0LTOcOjS4-12">
          <mxGeometry width="50" height="50" relative="1" as="geometry">
            <mxPoint x="400" y="320" as="sourcePoint" />
            <mxPoint x="450" y="270" as="targetPoint" />
          </mxGeometry>
        </mxCell>
        <mxCell id="Jppphol-Fye0LTOcOjS4-15" value="Find the highest Bid&amp;nbsp;" style="rounded=1;whiteSpace=wrap;html=1;" vertex="1" parent="1">
          <mxGeometry x="500" y="520" width="120" height="60" as="geometry" />
        </mxCell>
        <mxCell id="Jppphol-Fye0LTOcOjS4-17" value="" style="endArrow=classic;html=1;rounded=0;exitX=1;exitY=0.5;exitDx=0;exitDy=0;entryX=0.5;entryY=0;entryDx=0;entryDy=0;" edge="1" parent="1" source="Jppphol-Fye0LTOcOjS4-12" target="Jppphol-Fye0LTOcOjS4-15">
          <mxGeometry width="50" height="50" relative="1" as="geometry">
            <mxPoint x="480" y="330" as="sourcePoint" />
            <mxPoint x="530" y="280" as="targetPoint" />
            <Array as="points">
              <mxPoint x="560" y="470" />
            </Array>
          </mxGeometry>
        </mxCell>
        <mxCell id="Jppphol-Fye0LTOcOjS4-18" value="" style="endArrow=classic;html=1;rounded=0;exitX=0;exitY=0.5;exitDx=0;exitDy=0;entryX=0;entryY=0.5;entryDx=0;entryDy=0;" edge="1" parent="1" source="Jppphol-Fye0LTOcOjS4-12" target="Jppphol-Fye0LTOcOjS4-4">
          <mxGeometry width="50" height="50" relative="1" as="geometry">
            <mxPoint x="480" y="330" as="sourcePoint" />
            <mxPoint x="530" y="280" as="targetPoint" />
            <Array as="points">
              <mxPoint x="220" y="470" />
              <mxPoint x="220" y="210" />
            </Array>
          </mxGeometry>
        </mxCell>
      </root>
    </mxGraphModel>
  </diagram>
</mxfile>
